<svg xmlns="http://www.w3.org/2000/svg" viewBox="0 0 1440 320"><path fill="#0099ff" fill-opacity="1" d="M0,64L12.6,80C25.3,96,51,128,76,133.3C101.1,139,126,117,152,133.3C176.8,149,202,203,227,234.7C252.6,267,278,277,303,261.3C328.4,245,354,203,379,154.7C404.2,107,429,53,455,74.7C480,96,505,192,531,234.7C555.8,277,581,267,606,250.7C631.6,235,657,213,682,181.3C707.4,149,733,107,758,85.3C783.2,64,808,64,834,96C858.9,128,884,192,909,218.7C934.7,245,960,235,985,213.3C1010.5,192,1036,160,1061,154.7C1086.3,149,1112,171,1137,186.7C1162.1,203,1187,213,1213,229.3C1237.9,245,1263,267,1288,234.7C1313.7,203,1339,117,1364,85.3C1389.5,53,1415,75,1427,85.3L1440,96L1440,0L1427.4,0C1414.7,0,1389,0,1364,0C1338.9,0,1314,0,1288,0C1263.2,0,1238,0,1213,0C1187.4,0,1162,0,1137,0C1111.6,0,1086,0,1061,0C1035.8,0,1011,0,985,0C960,0,935,0,909,0C884.2,0,859,0,834,0C808.4,0,783,0,758,0C732.6,0,707,0,682,0C656.8,0,632,0,606,0C581.1,0,556,0,531,0C505.3,0,480,0,455,0C429.5,0,404,0,379,0C353.7,0,328,0,303,0C277.9,0,253,0,227,0C202.1,0,177,0,152,0C126.3,0,101,0,76,0C50.5,0,25,0,13,0L0,0Z"></path></svg>